<svg version="1.1" xmlns="http://www.w3.org/2000/svg" xmlns:xlink="http://www.w3.org/1999/xlink" width="35.80818" height="65.74954" viewBox="0,0,35.80818,65.74954"><g transform="translate(-217.50336,-139.57699)"><g data-paper-data="{&quot;isPaintingLayer&quot;:true}" fill-rule="nonzero" stroke-linecap="butt" stroke-linejoin="miter" stroke-miterlimit="10" stroke-dasharray="" stroke-dashoffset="0" style="mix-blend-mode: normal"><g><path d="M217.75336,205.07653v-37.51494h35.30818v37.51494z" fill="#c4c4c4" stroke="#c4c4c4" stroke-width="0.5"/><g fill="#000000" stroke="none" stroke-width="0"><path d="M233.12356,198.25565v-12.67987h4.37238v12.67987z"/><path d="M240.11932,182.34511c0,2.80387 -2.15332,5.07677 -4.80967,5.07677c-2.65626,0 -4.80962,-2.27295 -4.80962,-5.07677c0,-2.80387 2.15328,-5.07677 4.80962,-5.07677c2.65626,0 4.80967,2.27295 4.80967,5.07677z"/></g></g><path d="M246.73969,157.90437c-2.47724,0 -2.47724,-2.47724 -2.47724,-2.47724l0.02488,-0.02865c-0.20505,-1.53489 -0.62518,-3.05605 -1.24184,-4.47646c-3.78398,-5.76423 -11.34741,-8.64264 -15.83582,-1.71901c-4.00782,6.18224 -5.59765,13.81425 -4.54794,21.03395c0,0 0.35035,2.45232 -2.10197,2.80267c-2.45232,0.35035 -2.80267,-2.10197 -2.80267,-2.10197c-1.47865,-10.51446 3.877,-35.51585 19.8463,-30.76748c0.31002,0.09217 4.82068,3.04401 5.31229,3.41799c1.77694,1.35187 3.23906,3.12201 4.4861,4.97407c0.83294,1.96089 1.47385,4.02874 1.79018,6.13564l0.02488,0.72935c0,0 0,2.47724 -2.47724,2.47724z" fill="#c5c5c5" stroke="none" stroke-width="0.5"/></g></g></svg>