<svg version="1.1" xmlns="http://www.w3.org/2000/svg" xmlns:xlink="http://www.w3.org/1999/xlink" width="83" height="83" viewBox="0,0,83,83"><g transform="translate(-197.375,-136.632)"><g data-paper-data="{&quot;isPaintingLayer&quot;:true}" fill-rule="nonzero" stroke="none" stroke-linecap="butt" stroke-linejoin="miter" stroke-miterlimit="10" stroke-dasharray="" stroke-dashoffset="0" style="mix-blend-mode: normal"><path d="M280.375,178.132c0,22.882 -18.616,41.5 -41.5,41.5c-22.883,0 -41.5,-18.618 -41.5,-41.5c0,-22.883 18.616,-41.5 41.5,-41.5c22.884,0 41.5,18.618 41.5,41.5z" fill="#006dc7" stroke-width="1"/><path d="M204.931,178.133c0,-18.74675 15.19725,-33.944 33.944,-33.944c18.74675,0 33.944,15.19725 33.944,33.944c0,18.74675 -15.19725,33.944 -33.944,33.944c-18.74675,0 -33.944,-15.19725 -33.944,-33.944z" fill="#00b6ff" stroke-width="1"/><text transform="translate(229.59965,190.72233) scale(0.82598,0.82598)" font-size="40" xml:space="preserve" fill="#006dc7" fill-rule="nonzero" stroke="none" stroke-width="1" stroke-linecap="butt" stroke-linejoin="miter" stroke-miterlimit="10" stroke-dasharray="" stroke-dashoffset="0" font-family="Sans Serif" font-weight="normal" text-anchor="start" style="mix-blend-mode: normal"><tspan x="0" dy="0">3</tspan></text><text transform="translate(225.96601,160.18723) scale(0.25686,0.25686)" font-size="40" xml:space="preserve" fill="#006dc7" fill-rule="nonzero" stroke="none" stroke-width="1" stroke-linecap="butt" stroke-linejoin="miter" stroke-miterlimit="10" stroke-dasharray="" stroke-dashoffset="0" font-family="Sans Serif" font-weight="normal" text-anchor="start" style="mix-blend-mode: normal"><tspan x="0" dy="0">Level</tspan></text><g><path d="M234.5009,209.78292v-9.01621h8.48585v9.01621z" fill="#c4c4c4" stroke-width="0"/><path d="M242.06698,202.03228c-0.73518,0 -0.73518,-0.82421 -0.73518,-0.82421l0.00739,-0.51394c-0.23142,-1.84637 -1.8547,-6.08267 -4.03887,-3.56898c-1.3037,1.50038 -0.95927,2.76822 -1.38767,4.56156c0,0 -0.20197,0.7925 -0.90886,0.56607c-0.70689,-0.22643 -0.50492,-1.01893 -0.50492,-1.01893c0.53983,-1.93871 0.26001,-3.61853 1.76175,-5.27431c3.20753,-3.53655 6.10805,1.20509 6.53416,4.50147l0.00739,0.74707c0,0 0,0.82421 -0.73518,0.82421z" fill="#c5c5c5" stroke-width="0.5"/><g fill="#000000" stroke-width="0"><path d="M238.19492,208.14361v-3.04744h1.05084v3.04744z"/><path d="M239.87626,204.31972c0,0.67387 -0.51753,1.22014 -1.15593,1.22014c-0.6384,0 -1.15592,-0.54627 -1.15592,-1.22014c0,-0.67387 0.51752,-1.22014 1.15592,-1.22014c0.6384,0 1.15593,0.54628 1.15593,1.22014z"/></g></g></g></g></svg>