<svg version="1.1" xmlns="http://www.w3.org/2000/svg" xmlns:xlink="http://www.w3.org/1999/xlink" width="274.25" height="129" viewBox="0,0,274.25,129"><g transform="translate(-109,-116.5)"><g data-paper-data="{&quot;isPaintingLayer&quot;:true}" fill-rule="nonzero" stroke="#000000" stroke-linecap="butt" stroke-linejoin="miter" stroke-miterlimit="10" stroke-dasharray="" stroke-dashoffset="0" style="mix-blend-mode: normal"><g><path d="M381.5,181c0,34.24165 -27.31063,62 -61,62c-33.68937,0 -61,-27.75835 -61,-62c0,-34.24165 27.31063,-62 61,-62c33.68937,0 61,27.75835 61,62z" fill="#000000" stroke-width="3.5"/><path d="M167.5,243v-124h151v124z" fill="#fff1cd" stroke-width="5"/><path d="M138.5,243v-124h27v124z" fill="#ffbf5c" stroke-width="5"/><path d="M111.5,243v-124h25v124z" fill="#ff2727" stroke-width="5"/><path d="M376.5,179c0,12.70255 -6.71573,23 -15,23c-8.28427,0 -15,-10.29745 -15,-23c0,-12.70255 6.71573,-23 15,-23c8.28427,0 15,10.29745 15,23z" fill="#fff1cd" stroke-width="3.5"/><path d="M322.5,237v-111h23v111z" fill="#fff1cd" stroke-width="3.5"/></g></g></g></svg>