<svg version="1.1" xmlns="http://www.w3.org/2000/svg" xmlns:xlink="http://www.w3.org/1999/xlink" width="200.97581" height="326.57221" viewBox="0,0,200.97581,326.57221"><defs><radialGradient cx="241.58259" cy="308.87021" r="56" gradientUnits="userSpaceOnUse" id="color-1"><stop offset="0" stop-color="#27caff"/><stop offset="1" stop-color="#0c00ff"/></radialGradient><radialGradient cx="238.5" cy="52.61111" r="56" gradientUnits="userSpaceOnUse" id="color-2"><stop offset="0" stop-color="#27caff"/><stop offset="1" stop-color="#0c00ff"/></radialGradient></defs><g transform="translate(-148,-17.5)"><g data-paper-data="{&quot;isPaintingLayer&quot;:true}" fill-rule="nonzero" stroke="#000000" stroke-linejoin="miter" stroke-miterlimit="10" stroke-dasharray="" stroke-dashoffset="0" style="mix-blend-mode: normal"><path d="M347.22581,180.17407c0,24.94895 -19.89891,45.17407 -44.44546,45.17407c-24.54655,0 -44.44546,-20.22513 -44.44546,-45.17407c0,-24.94895 19.89891,-45.17407 44.44546,-45.17407c24.54655,0 44.44546,20.22513 44.44546,45.17407z" fill="#000000" stroke-width="3.5" stroke-linecap="butt"/><g stroke-width="5"><path d="M241.58597,257.48114l-0.27922,-72.49946" fill="none" stroke-linecap="round"/><path d="M265.0182,279.14881l-21.94274,23.29198l-24.01985,-22.62845l21.94274,-23.29198z" fill="#000000" stroke-linecap="butt"/><path d="M297.53183,276.17209l0.10139,65.22214l-111.99986,0.1741l-0.10139,-65.22214z" fill="url(#color-1)" stroke-linecap="butt"/><path d="M262.43513,336.44843l-0.83747,-58.99776" fill="none" stroke-linecap="round"/><path d="M221.53382,277.51245l1.09327,59.99837" fill="none" stroke-linecap="round"/></g><g stroke-width="5"><path d="M238.41674,104.00011l0.16652,72.49981" fill="none" stroke-linecap="round"/><path d="M215.01822,82.29604l21.97892,-23.25784l23.98465,22.66576l-21.97892,23.25784z" fill="#000000" stroke-linecap="butt"/><path d="M182.5,85.22222v-65.22222h112v65.22222z" fill="url(#color-2)" stroke-linecap="butt"/><path d="M217.69036,25.00051l0.74576,58.99899" fill="none" stroke-linecap="round"/><path d="M258.5,84l-1,-60" fill="none" stroke-linecap="round"/></g><path d="M191.30239,225.34815v-90.34815h110.02073v90.34815z" fill="#fff1cd" stroke-width="5" stroke-linecap="butt"/><path d="M170.17258,225.34815v-90.34815h19.67258v90.34815z" fill="#ffbf5c" stroke-width="5" stroke-linecap="butt"/><path d="M150.5,225.34815v-90.34815h18.21535v90.34815z" fill="#ff2727" stroke-width="5" stroke-linecap="butt"/><path d="M343.58274,178.71685c0,9.25526 -4.89318,16.75812 -10.92921,16.75812c-6.03604,0 -10.92921,-7.50287 -10.92921,-16.75812c0,-9.25526 4.89318,-16.75812 10.92921,-16.75812c6.03604,0 10.92921,7.50287 10.92921,16.75812z" fill="#fff1cd" stroke-width="3.5" stroke-linecap="butt"/><path d="M304.23757,220.97646v-80.87616h16.75812v80.87616z" fill="#fff1cd" stroke-width="3.5" stroke-linecap="butt"/></g></g></svg>